PathFileType	4	(X/Y/Z)	Patient4_TMGait_0pt8_01_right_41.trc.trc
DataRate	CameraRate	NumFrames	NumMarkers	Units	OrigDataRate	OrigDataStartFrame	OrigNumFrames
85.889570552147	85.889570552147	4	33	mm	85.889570552147	124	       141
Frame#	Time	Sacral			L.Shoulder			Chest			R.Shoulder			Neck			R.ASIS			L.ASIS			R.Thigh.Superior			R.Thigh.Lateral			R.Thigh.Inferior			R.Patella			L.Thigh.Superior			L.Thigh.Lateral			L.Thigh.Inferior			L.Patella			L.Shank.Superior			L.Shank.Lateral			L.Shank.Inferior			R.Shank.Superior			R.Shank.Lateral			R.Shank.Inferior			R.Heel			R.Midfoot.Superior			R.Midfoot.Lateral			R.Toe			L.Heel			L.Midfoot.Lateral			L.Midfoot.Superior			L.Toe			L.Elbow			L.Wrist			R.Elbow			R.Wrist			
		X1	Y1	Z1	X2	Y2	Z2	X3	Y3	Z3	X4	Y4	Z4	X5	Y5	Z5	X6	Y6	Z6	X7	Y7	Z7	X8	Y8	Z8	X9	Y9	Z9	X10	Y10	Z10	X11	Y11	Z11	X12	Y12	Z12	X13	Y13	Z13	X14	Y14	Z14	X15	Y15	Z15	X16	Y16	Z16	X17	Y17	Z17	X18	Y18	Z18	X19	Y19	Z19	X20	Y20	Z20	X21	Y21	Z21	X22	Y22	Z22	X23	Y23	Z23	X24	Y24	Z24	X25	Y25	Z25	X26	Y26	Z26	X27	Y27	Z27	X28	Y28	Z28	X29	Y29	Z29	X30	Y30	Z30	X31	Y31	Z31	X32	Y32	Z32	X33	Y33	Z33	

124	47.442071428571	903.063818794341	984.509748410148	445.650298829600	1091.146969729430	1423.727453690242	284.730242478001	1182.076046361687	1348.127454788434	449.118781174958	1085.069865515894	1414.574025561396	619.131283572385	1062.793543393067	1475.708127395712	440.895044425904	1130.304596380353	921.752778073919	567.736163181469	1118.873558743336	946.586681252997	293.138135129962	1207.568009306996	754.224752934728	536.326482841055	1165.058515675556	630.755068751115	609.566701881169	1254.885041841488	596.950818660897	530.276459288596	1286.327468537180	512.964945760789	545.410280286710	1107.254360903641	714.171356808112	314.869548864837	979.500470212407	627.713244230532	256.803858946161	1034.652283891795	528.018369299470	318.250701623660	1013.962083421541	458.904984604172	327.023286762897	968.548392368927	398.063706269103	321.164841147896	849.173446282742	311.787623442150	276.647554083977	871.185493023203	190.461210081004	344.932595676572	1271.355635634779	421.661638436004	557.089846355522	1217.732791598920	308.520767830705	620.622274430682	1285.312765531299	222.527732865745	568.127729256288	1189.069098332280	41.754050201801	541.037383768973	1351.564512886980	110.840424564363	579.889381055357	1272.000067681161	40.500931922944	615.867479732604	1475.283097382335	72.401369739265	608.681465893192	714.140155970187	55.788244008346	393.804320284159	784.211863728013	42.702640271600	311.781381550586	873.567983944572	98.042663103333	333.105183488697	994.953054521286	38.326768321659	299.776772837261	1208.787774586600	1135.371258899331	105.824919826056	1456.612672185764	1166.757448405368	153.922096265637	896.594994342722	1128.627643341330	710.858138428749	808.481867401915	884.198998732233	722.255598410828	
125	47.453714285714	905.471494446714	983.395162648812	448.799180217706	1091.496747978969	1422.539009003380	287.216753079462	1183.265558262867	1347.568166014306	451.509204603542	1086.333023349871	1413.635045754969	621.829094762684	1063.432495630078	1474.714362828692	443.493386430759	1133.293106990099	920.572142143821	570.044729936754	1120.988486155361	945.626350703898	295.592306120421	1210.700739143769	752.287582253340	537.852619739669	1166.165515255855	628.984201516916	609.715910235283	1256.097995435011	595.124882773779	530.719415442813	1286.212442345101	509.814868950074	544.957544467015	1109.364040752132	712.951279858721	316.241478168576	981.311437775859	626.625203633311	258.693666662878	1037.209548418491	526.360939240727	319.040668621058	1016.276371835822	456.181453578590	327.109023619785	968.479714417866	396.275896803157	321.488752640611	846.441807279940	313.511952200776	277.169367777638	865.512446675864	191.085300453301	344.355791881893	1269.675053786139	418.112005214976	556.438942707350	1213.944343144102	305.971340732250	620.082539245721	1278.793706116855	218.522149484980	566.707987638031	1177.034501027673	41.121358629694	540.414413876453	1341.659638467234	106.047098421153	577.809444556416	1260.246209576561	38.539916419720	615.020312791525	1464.731757618805	64.412916091084	606.315147960687	705.412421636999	59.665125314793	393.133833964624	775.208445427377	44.305952419015	311.382070050382	865.642230640578	98.462680090640	332.122840311846	985.630332528992	38.270248812588	299.724729298961	1206.608996798374	1132.504822400591	108.313051425280	1453.750451981627	1167.491031579622	156.801752046866	899.995356524399	1125.956811893674	712.834686011078	810.237816604048	882.126622204146	723.840290077021	
126	47.465357142857	907.786008244404	982.745434774300	451.934675733571	1092.014306166996	1421.725131213450	289.759254409597	1184.598343399677	1347.299278724399	453.956346420783	1087.800826598786	1412.992426536596	624.609510321875	1064.267025527197	1474.127754646592	446.168080736910	1136.150453170209	919.914606030837	572.451306160408	1123.008115545071	945.003753166683	298.152984869736	1213.639384667802	750.870705889646	539.599677849145	1167.334697228106	627.899782904046	610.283431311672	1257.214541136501	593.871538438256	531.428190607404	1286.133773815883	507.336770135924	544.922985297706	1111.837269402104	712.094242577359	317.758704396482	983.849327551002	625.540692177793	260.667009235788	1040.899174865665	524.833242196537	319.803234947151	1019.834882495905	453.450147207338	326.970937951701	969.426294159358	394.556385305661	321.693642783383	844.602219313216	315.711982733461	277.727519519116	860.537740968843	192.168630868929	343.673670343584	1268.101511719159	415.314192848447	556.168245876455	1210.485512696060	304.151078909853	620.018958389030	1272.576600103247	215.340912220166	565.679466178613	1165.582449260422	40.936151752178	540.107505026836	1332.089899251089	102.314833731753	576.190249291137	1249.061296568609	37.259891127802	614.523562067820	1454.588691362887	57.890778787911	604.448391543950	697.109643959593	64.757706735112	392.455801389892	766.390516791381	46.662830799980	310.985406205723	858.169656014362	99.062138462362	331.015506721982	976.203668875489	38.149350911803	299.710446332478	1203.596678321925	1129.275485351746	111.168983428110	1450.401412099497	1166.722504669980	159.546243450712	904.509449276233	1122.763734729878	714.985510331059	814.113536266061	879.128136950147	725.664080591648	
127	47.477000000000	909.966211596250	982.561234367101	455.030474945833	1092.690593041472	1421.335134474559	292.332923473021	1186.040586740221	1347.342570133664	456.428005549129	1089.447648027388	1412.694441037048	627.422719661744	1065.271450097511	1473.973684736643	448.879010403561	1138.821153220192	919.798778142820	574.966399978624	1124.880115786601	944.742524152038	300.817565526725	1216.298913966732	750.009184492150	541.581046294122	1168.520887115364	627.473351354119	611.299516162558	1258.166327294081	593.139698266981	532.441719253398	1285.982761636582	505.503742128462	545.373906418617	1114.692015924512	711.636258985035	319.446453380310	987.219727782633	624.447065798304	262.680424396796	1045.838522061654	523.464799349922	320.531140269165	1024.747043207799	450.758175043708	326.609725077715	971.538433949278	392.930100673586	321.768189694648	843.844155691860	318.424972833739	278.310578967334	856.430326113009	193.792739839550	342.911277768032	1266.548916408025	413.239063004889	556.308674629053	1207.272932128664	303.011792595219	620.409829705204	1266.640648070886	212.971721962308	565.049040952670	1154.869107812529	41.077513635484	540.040164560304	1322.918565745121	99.663461880224	575.063553063504	1238.565486330577	36.577552186226	614.327107798718	1444.924515590821	52.974774461540	603.151140006351	689.420958393503	71.304846410932	391.794724317757	757.880359379967	50.011387130266	310.606075351940	851.260057612853	99.918049161832	329.830007404387	966.663818775990	37.906300908180	299.738223878112	1199.742603941820	1125.800131578638	114.420055444703	1446.610959857451	1164.432970207327	162.168348566781	910.017692579814	1119.244083633857	717.317849442698	820.132368097449	875.333651259648	727.722158606539	
